<?xml version="1.0" encoding="utf-8"?>
<!-- Designed by Vexels.com - 2020 All Rights Reserved - https://vexels.com/terms-and-conditions/  -->
<svg version="1.1" id="Capa_1" xmlns="http://www.w3.org/2000/svg" xmlns:xlink="http://www.w3.org/1999/xlink" x="0px" y="0px"
	 viewBox="0 0 1200 1200" style="enable-background:new 0 0 1200 1200;" xml:space="preserve">
<style type="text/css">
	.st0{fill:#FFFFFF;}
	.st1{fill:#DE9F32;}
	.st2{fill:#508E8C;}
	.st3{fill:#AC5962;}
	.st4{fill:#DE9F33;}
	.st5{fill:#E3B3A6;}
	.st6{fill:#E3B4A5;}
	.st7{fill:#601812;}
</style>
<path class="st0" d="M1015.21,631.97L706.19,811.78c0,0-280.38-21.83-301.08-37.24s-59.81-70.15-72.91-87.03
	c-13.1-16.87-46.59-63.01-40.52-83.08c6.07-20.08-64.09-108.96,62.71-96.33c126.8,12.63,232.15,26.79,277.81,34.36
	c45.65,7.57,185.39-1.29,185.39-1.29l137.97,45.96l48.91,28.9L1015.21,631.97z"/>
<path class="st1" d="M340.83,520.56c-22.81-6.75-42.47-18.63-58.88-35.92c-7.71-8.13-16.21-15.57-23.38-24.14
	c-17.25-20.61-17.24-51.22,0.81-75.63c32.28-43.65,69.99-81.89,115.55-111.91c9.17-6.04,19.18-10.52,29.36-14.58
	c3.24-1.29,6.09-2.55,5.98-6.73c-0.32-11.81,7.28-18.19,16.23-23.71c23.41-14.43,48.86-24.41,74.51-33.86
	c39.67-14.61,80.52-25.04,122.29-31.12c57.36-8.35,114.63-8.52,171.01,7.24c23.03,6.44,44.82,16.24,66.56,26.16
	c19.48,8.89,39.09,17.39,55.43,31.71c17.31,15.18,30.08,33.71,35.38,55.94c4.22,17.68,0.46,35.6-6.42,52.47
	c-2.47,6.06-5.96,11.7-8.94,17.56c-0.61,1.2-1.57,2.59-1.39,3.75c2.4,15.64-7.83,24.87-17.39,34.37
	c-15.46,15.37-34.8,24.32-54.51,32.65c-21.95,9.27-44.27,17.64-67.07,24.46c-9.42,2.82-15.89,9.35-23.88,13.86
	c-16.09,9.09-33.76,14.41-51.04,20.58c-28.79,10.29-58.74,15.33-88.88,19.86c-21.9,3.29-43.53,8.34-65.25,12.79
	c-14.27,2.92-28.73,4.54-43.2,5.72c-14.01,1.15-27.48,5.11-41.41,6.65c-17.75,1.96-35.5,2.92-53.33,2.84
	C399.59,527.92,370.21,524.24,340.83,520.56z"/>
<path class="st2" d="M428.25,534.72c8.78,3.15,18.35,3.43,26.84,7.95c4.2,2.24,9.26,0.16,13.85-0.32
	c26.83-2.82,53.69-4.99,80.62-6.76c25.62-1.69,49.95-11.33,75.36-14.21c39.39-4.48,73.7-23.55,110.16-36.46
	c17.07-6.05,33.81-13.16,52.03-15.66c5.3-0.73,10.33-3.68,15.39-5.84c5.17-2.2,10.38-3.87,16.01-2.26c3.93,1.12,6.9-0.91,10.09-2.49
	c22.47-11.18,43.39-25.02,64.87-37.88c4.32-2.59,8.88-4.14,13.72-5.43c8.85-2.36,16.68-5.85,21.76-14.71
	c6.09-10.63,14.96-13.13,26.83-9.34c15.98,5.1,31.91,10.35,47.87,15.51c3.43,1.11,6.77,2.37,9.49,4.84
	c6.69,6.07,6.62,14.11-0.26,19.98c-4.76,4.06-10.52,5.98-16.57,6.95c-19.56,3.12-39.12,6.18-58.72,9.07
	c-4.29,0.63-7.96,1.58-10.08,5.83c-0.72,1.43-1.88,2.94-3.24,3.69c-13.98,7.68-18.79,22.43-27.06,34.55
	c-2.91,4.26-2.26,7.18,0.93,10.86c8.57,9.88,14.1,21.65,19.65,33.35c3.31,6.97,3.62,14.27,2.14,21.81
	c-1.51,7.72-5.8,12.85-13.13,15.63c-8.43,3.19-17.28,3.81-26.05,3.32c-15.39-0.87-30.85-1.48-46-4.56
	c-4.41-0.9-8.04-0.27-11.82,1.81c-10.37,5.72-20.92,11.11-31.21,16.98c-7.74,4.41-16.07,7.87-19.45,17.79
	c-1.85,5.42-8,8.1-13.59,10.05c-22.31,7.77-44.8,8.16-67.35,1.25c-4.98-1.53-10.42-3.3-13.52-7.58c-4.55-6.3-9.68-6.42-16.31-4.3
	c-6,1.92-12.27,3.37-18.52,4.1c-38.54,4.48-72.83,23.02-109.74,32.83c-11.46,3.04-22.6,6.99-33.41,11.92
	c-23.53,10.72-46.79,10.62-69.95-1.56c-11.44-6.02-23-11.8-34.46-17.78c-10.6-5.53-22.94-6.1-34.64-4.98
	c-15.01,1.43-29.86,4.66-44.77,7.18c-8.36,1.42-16.41-1.24-24.55-2.1c-5.77-0.61-8.43-8.09-5.76-13.91
	c2.45-5.33,6.36-9.66,10.49-13.71c2.79-2.73,2.6-5.02,1.38-8.69c-3.37-10.14-11.02-16.39-17.82-23.99
	c-14.33-16.02-32.19-11-49.26-11.53c-7.2-0.23-14.35,0.02-20.83-3.77c-4.87-2.84-7.85-6.9-7.59-12.75
	c0.25-5.57,3.46-9.85,8.33-11.32c16.08-4.87,19.48-17.9,21.48-31.89c2.09-14.61,9.98-18.74,24.29-18.63
	c12.48,0.09,19.09,6.69,27.45,13.52c15.51,12.66,34.49,17.88,54.03,20.94c2.22,2.1,5.15,1.73,7.8,2.08
	C373.04,527.68,400.65,531.18,428.25,534.72z"/>
<path class="st3" d="M972.2,766.95c-1.81,21.14-14.37,38.17-36.38,45.93c-34.73,12.24-68.45,27.41-104.01,37.17
	c-31.62,8.67-63.63,15.84-96.74,15.89c-1.33,0-3.03,0.02-3.93,0.78c-8.19,6.83-17.9,6.01-27.57,5.98
	c-14.59-0.04-29.22,0.99-43.76,0.23c-20.05-1.05-40.01-3.35-59.23-9.88c-17.34-5.9-35.84-5.83-53.53-10.12
	c-10-2.42-20.04-4.17-26.9-12.9c-0.33-0.42-0.8-0.9-1.28-1.01c-15.48-3.5-30.76-9.14-46.81-7.89c-6.12,0.48-11.97,1.42-17.79-0.55
	c-30.25-10.23-60.6-20.18-90.62-31.04c-19.94-7.21-35.8-22.19-55.15-30.72c-2.26-1-4.2-2.82-6.51-3.55
	c-18.57-5.89-24.1-20.39-24.67-37.77c-0.54-16.45,4.34-31.04,17.24-42.07c9.92-8.48,18.68-6.11,26.09,4.43
	c10.85,15.41,25.42,27.08,40.96,37.86c30.9,21.44,66.57,30.97,101.41,42.84c10.45,3.56,21.66,5.36,29.95,14.65
	c3.81,4.26,11.52,1.86,17.4,0.65c26.16-5.39,52.31-10.87,78.43-16.44c28.56-6.08,57.24-12.65,86.32-14.09
	c27.11-1.34,53.85-6.43,81.18-5.9c16.92,0.33,33.62-5.41,50.12-9.53c20.28-5.06,40.32-11.2,60.19-17.71
	c22.3-7.3,44.49-6.1,66.87-1.16c3.76,0.83,7.45,2,11.19,2.89C968.41,729.57,975.8,740.25,972.2,766.95z"/>
<path class="st4" d="M814.42,1059.18c-15.59-1.93-31.29-6.02-46.73-5.2c-16.96,0.9-33.44-0.63-50-2.65
	c-17.49-2.14-35.08-4.3-52.24-8.14c-13.82-3.09-27.4-7.61-41.06-11.56c-21.5-6.22-43.69-8.86-65.44-13.8
	c-28.38-6.45-55.06-16.67-81.29-28.84c-16.64-7.72-35.13-11.91-50.32-22.16c-16.06-10.83-31.11-23.41-47.96-32.91
	c-15.86-8.95-28.82-21.65-44.36-30.89c-10.49-6.24-12.12-16.67-5.64-26.98c3.72-5.91,8.66-10.67,14.22-14.66
	c8.81-6.33,17.89-5.54,26.87,0.06c17.43,10.87,37.31,15.76,56.3,22.76c22.14,8.16,44.44,15.86,66.72,23.64
	c35.99,12.56,70.94,28.69,109.68,31.83c3.85,0.31,7.29,0.3,11.16-1.13c5.34-1.97,11.2-2.44,17.1-1.83
	c40.3,4.16,80.42,9.89,120.67,14.4c19.8,2.22,40.05,1.06,60.07-0.65c23.81-2.04,47.35-5.51,70.46-11.74
	c7.14-1.92,13.24,1.9,18.51,5.39c16.48,10.92,34.82,18.37,51.65,28.64c18.61,11.35,22.18,24.02,10.41,42.33
	c-6.53,10.17-14.29,19.36-22.3,28.32c-9.28,10.39-21.82,13.06-35.04,13.41c-4.95,0.13-9.95,0.08-14.85-0.51
	c-8.26-1-15.99-1.96-22.21,5.89c-2.88,3.63-8.12,2.46-12.52,1.91c-13.95-1.75-27.9-3.46-41.85-5.18
	C814.44,1059.01,814.43,1059.1,814.42,1059.18z"/>
<path class="st5" d="M957.46,927.86c-14.32-2.57-28.92,0.05-43.21-2.85c-8.56-1.73-15.67,4.03-23.29,6.7
	c-19.2,6.74-39.38,6.85-59.18,9.34c-16.6,2.09-33.35,4.46-50,4.29c-15.86-0.16-31.93,0.55-47.74-3.9
	c-10.18-2.87-20.96-3.77-31.84-3.63c-9.82,0.13-19.8-1.49-29.5-3.38c-32.06-6.23-64.25-12.16-95.51-21.71
	c-29.62-9.05-60.5-11.08-90.45-17.86c-16.78-3.79-33.01-10.19-49.31-15.9c-30.8-10.78-61.73-21.25-91.61-34.49
	c-5.22-2.32-10.5-4.69-14.25-9.47c-2.5-3.2-2.87-6.48-1.64-10.07c1.29-3.78,4.75-4.7,8.02-4.59c4.75,0.16,9.28-0.79,13.91-1.38
	c5.73-0.73,10.79,0.24,16.26,3.51c11.79,7.04,24.56,11.92,38.71,12.76c22.11,1.3,43.15,8.17,64.39,13.74
	c24.41,6.4,48.82,12.74,73.43,18.33c29.57,6.72,59.59,10.47,89.55,14.69c8.4,1.18,16.77,2.97,25.14,4.52
	c19.69,3.63,39.52,0.7,59.15,1.92c34.47,2.14,65.6-12.32,98.59-17.1c11.18-1.62,22.11-4.32,32.8-7.93
	c11.77-3.97,22.29-0.57,31.99,5.84c15.57,10.29,31.58,19.82,47.68,29.22c6.61,3.86,14.55,2.53,21.44,5.51
	c3.49,1.51,7.36,2.13,11.04,3.22c6.93,2.05,8.6,7.24,7.51,13.57C968.38,927.66,962.48,927.39,957.46,927.86z"/>
<path class="st4" d="M540.48,694.95c-5.46-0.68-10.92-1.5-16.4-1.99c-7.47-0.66-13.79-3.36-15.31-11.26
	c-1.61-8.35,5.4-11.6,11.23-14.19c11.97-5.32,24.26-9.97,36.56-14.52c13.17-4.87,23.65-14.6,36.71-19.69
	c11.98-4.66,23.74-9.87,35.54-14.99c2.66-1.15,5.59-2.19,7.97-1.02c9.68,4.75,20.01,1.35,29.91,2.9c5.17,0.81,10.23,1.49,14.87,4.34
	c4.07,2.5,8.74,3.42,13.42,1.66c4.93-1.85,9.86-1.13,14.66-0.05c8.3,1.87,11.51,10.96,6.49,17.8c-1.28,1.74-2.6,3.88-4.42,4.73
	c-20.38,9.46-37.11,25.3-58.04,33.65c-26.24,10.47-53.49,15.67-81.92,14.77C561.27,696.76,550.88,696.1,540.48,694.95z"/>
<path class="st2" d="M958.68,332.05c0.34-0.65,0.67-2.37-0.63-4.23c-3.84-5.55-3.51-10.88,1.47-15.51c5.8-5.39,13-5.7,19.05-1.86
	c5.85,3.72,11.34,6.63,18.4,7.09c4.27,0.28,13.92,4.51,14.86,9.09c0.97,4.72-2.09,12.77-5.36,15.61
	c-10.69,9.29-30.68,3.75-43.28,7.95c-2.12,0.71-4.56-0.18-4.03-2.47C960.33,342.66,955.93,338.19,958.68,332.05z"/>
<path class="st6" d="M428.25,534.72c-27.6-3.53-55.21-7.04-82.81-10.64c-2.65-0.35-5.58,0.02-7.8-2.08
	c1.06-0.48,2.12-0.96,3.18-1.43c29.39,3.68,58.77,7.36,88.15,11.03C428.73,532.63,428.49,533.68,428.25,534.72z"/>
<path class="st7" d="M943.16,578.45c16.2,6.29,32.21,11.5,47.26,18.73c8.67,4.17,16.52,10.85,23.4,17.74
	c8.35,8.35,5.96,21.42-5.49,30.08c-13.16,9.95-26.92,19.15-40.8,28.08c-15,9.65-30.45,18.61-46.07,28.09
	c15.53,5.1,30.07,9.67,44.47,14.64c13.79,4.76,17.57,9.5,17.58,24.29c0.01,16.78-1.06,33.55-1.59,50.33
	c-0.25,7.89-5.02,12.67-11.3,16.08c-23.96,13.01-48.01,25.85-72.06,38.68c-6.29,3.35-12.73,6.42-20.4,10.27
	c6.84,3.48,12.93,6.1,18.55,9.51c27.74,16.84,55.43,33.76,82.88,51.07c2.85,1.79,3.96,6.33,5.88,9.6c-3.36,1.75-6.6,4.68-10.1,5.05
	c-17.78,1.91-35.63,3.13-53.45,4.68c-2.87,0.25-5.69,0.97-8.75,1.51c18.11,9.16,35.6,18.06,53.14,26.86
	c17.95,9,21.7,25.66,16.83,42.09c-5.26,17.71-14.65,33.8-27.87,47.21c-1.54,1.56-4,2.89-4.46,4.72
	c-2.75,10.8-11.06,12.37-20.28,13.36c-42.28,4.55-84.56,5.03-126.97,1.55c-27.7-2.27-55.77-1.47-83.21-5.34
	c-43.58-6.14-86.82-14.81-130.13-22.81c-47.72-8.82-92.59-26.71-136.59-46.24c-40.63-18.03-77.23-43.3-111.49-71.57
	c-9.88-8.15-18.06-18.51-26.22-28.51c-2.03-2.49-2.31-8.14-0.96-11.31c3.09-7.28,7.66-13.95,11.67-20.83
	c2.61-4.47,5.29-8.9,8.38-14.08c-6.16-2.1-11.65-3.64-16.87-5.82c-7.32-3.04-14.64-6.21-21.58-10.02c-3.01-1.65-5.06-5.05-7.54-7.65
	c2.95-1.77,5.69-4.16,8.87-5.2c11.76-3.83,23.67-7.2,35.51-10.77c1.56-0.47,3.09-1.08,3.89-1.36
	c-23.69-17.77-47.4-35.86-71.47-53.43c-6.93-5.06-11.66-10.78-9.24-19.32c4.26-15.01,8.92-29.95,14.33-44.58
	c5.54-14.97,16.14-24.81,32.76-26.86c0.71-5.1-0.55-7.32-5.87-7.57c-5.13-0.25-10.49-1.21-15.22-3.15
	c-17.24-7.05-22.11-24.7-11.43-39.94c12.04-17.19,9.59-24.42-10.73-30.06c-6.04-1.67-12.49-1.81-18.72-2.89
	c-13.44-2.35-27.27-3.54-40.17-7.62c-17.09-5.42-21.52-18.1-12.48-33.9c3.96-6.92,10.24-12.8,16.37-18.11
	c5.24-4.54,7.91-8.74,7.14-16.12c-1.97-18.76,8.42-33.84,26.42-41.58c-1.04-13.47-2.84-26.41-2.84-39.35
	c0-17.15,5.12-33.66,14.27-47.79c13.86-21.39,27.81-43.25,45.05-61.81c58.54-63,131.9-102.69,212.18-131.32
	c49.2-17.55,98.89-32.46,151.12-36.9c58.14-4.94,115.87-1.81,171.39,17.17c22.99,7.86,45.94,18.43,65.83,32.22
	c33.82,23.45,63.08,51.95,71.83,95.18c0.52,2.57,3.46,5.69,5.99,6.61c5.37,1.97,11.18,2.79,16.86,3.83
	c10.95,2.02,20.28,6.88,27.64,15.3c8.76,10.03,8.9,19.74-1.29,28.05c-6.42,5.23-14.44,8.88-22.25,11.93
	c-7.64,2.97-16.21,3.56-23.82,6.59c-4.23,1.68-7.32,6.2-10.93,9.44c3.9,2.01,7.61,4.93,11.75,5.86c11.53,2.58,23.32,3.98,34.87,6.5
	c12.53,2.73,21.54,10.88,28.49,21.19c7.47,11.08,2.79,28.81-10.7,37.32c-7.55,4.76-16.23,8.46-24.9,10.54
	c-17.37,4.17-35.21,6.32-52.59,10.46c-8.61,2.05-16.78,6.32-24.85,10.2c-5.12,2.46-7,7.64-4.69,12.67
	c3.74,8.14,7.41,16.72,13.06,23.48c13.03,15.59,18.77,32.79,15.7,52.83C945.5,570.25,944.21,574.19,943.16,578.45z M761.35,173.78
	c-35.34-3.66-70.69-4.5-106.2-0.19c-50.39,6.11-98.48,20.22-145.87,37.93c-69.91,26.13-134.77,60.33-187.74,114.03
	c-23.07,23.39-45.29,47.79-55.89,79.86c-4.48,13.57-8.26,28.17-1.63,41.94c7.82,16.26,18.34,30.41,35.09,39.42
	c20.81,11.2,42.52,18.62,65.63,23.88c38.52,8.77,77.54,12.51,116.47,10.09c59.35-3.69,118.11-12.49,175.93-27.79
	c69.07-18.27,137.22-38.35,202.01-69.3c39.11-18.68,65.89-47.13,80.77-87.16c2.68-7.2,3.68-15.63,3.13-23.32
	c-2.74-38.5-25.2-65.98-53.88-88.26C851.74,195.84,809.62,176.76,761.35,173.78z M287.22,632.57c0.22,1.03,0.43,2.05,0.65,3.08
	c7.1,0.13,14.34,1.19,21.28,0.2c19.58-2.79,38.99-6.83,58.57-9.62c19.56-2.79,38.53-0.37,55.83,9.94
	c9.92,5.92,19.88,11.88,29.2,18.68c7.19,5.25,14.72,6.93,23.26,6.24c18.44-1.48,35.42-7.6,51.84-15.73
	c22.22-10.99,44.13-22.73,66.87-32.51c32.06-13.79,65.23-21.39,99.3-6.75c26.1,11.21,51.17,8.1,75.71-3.96
	c16.06-7.89,31.92-16.26,47.44-25.16c20.87-11.96,42.47-14.52,65.15-6.77c10.17,3.47,19.75,3.32,29.69-1
	c5.25-2.28,7.87-5.57,6.37-10.67c-2.28-7.76-4.82-15.62-8.58-22.73c-5.11-9.68-12.76-18.15-17.02-28.12
	c-10.02-23.48-2.65-43.59,20.29-54.4c11.26-5.31,23.82-8.2,36.06-10.98c13.66-3.1,27.69-4.48,41.42-7.32
	c6.38-1.32,12.75-3.69,18.54-6.71c8.43-4.41,8.62-9.65-0.01-13.18c-11.37-4.66-23.46-7.55-35.25-11.2
	c-9.78-3.03-19.57-6.05-30.28-9.36c-8.95,8.08-18.85,18.61-30.3,27.04c-28.98,21.35-60.84,37.77-94.37,50.73
	c-49.14,18.99-99.75,33.05-150.96,45.42c-47.7,11.52-95.49,21.59-144.43,26.23c-52,4.94-103.79,7.06-155.39-3.38
	c-21.29-4.31-43.11-6.95-62.44-17.89c-5.87-3.32-10.09-2.92-15.34,1.48c-4.08,3.42-9.55,5.44-14.7,7.23
	c-4.55,1.58-8.04,3.04-7.9,8.79c0.04,1.75-1.62,4.67-3.03,5.03c-1.59,0.41-4.23-0.99-5.61-2.4c-5.1-5.24-6.05-11.77-1.21-17.07
	c3.88-4.24,9.55-6.98,14.71-9.87c2.96-1.66,6.48-2.3,10.4-3.62c-8.43-6.86-16.8-12.34-23.38-19.45c-5.24-5.67-10.35-5.84-16.09-3.25
	c-6.02,2.72-9.68,7.92-7.84,14.74c5.55,20.56-5.4,32.39-21.25,39.18c-3.74,1.6-6.57,5.32-11.23,9.26
	c13.05,5.74,23.84,8.14,35.31,7.32c16.04-1.14,31.17,1.92,45.43,9.49c16.61,8.82,26.61,38.24,9.22,55.56
	C290.93,627.33,289.19,630.07,287.22,632.57z M309.75,758.63c8.53-17.55,22.1-23.98,31.47-14.75c-2.32,2.3-4.85,4.43-6.91,6.95
	c-6.38,7.76-6,23.12,2.02,27.58c15.71,8.72,32.25,15.95,48.35,23.75c7.46-13.22,11.46-15.67,21.06-13.12
	c-1.35,3.31-2.58,6.59-4.03,9.78c-2.98,6.53-2.15,10.69,5.89,12.36c10.77,2.24,21.36,5.36,32.07,7.94
	c26.5,6.37,53.57,10.94,79.41,19.34c40.1,13.03,80.54,23.4,122.79,23.69c44.72,0.31,89.35,4.62,134.23-2.73
	c38.97-6.38,76.28-16.04,111.9-33.12c12.77-6.13,20.08-14.46,21.46-28.6c0.46-4.65,3.17-9.09,4.85-13.62
	c1.26,0.14,2.52,0.29,3.79,0.43c1.57,8.09,3.15,16.19,4.95,25.46c11.31-5.38,22.92-10.85,34.45-16.48c1.02-0.5,2.07-2.01,2.17-3.13
	c1.39-15.19,2.62-30.4,3.97-46.61c-13.71,6.51-25.75,11.77-37.37,17.84c-19.92,10.42-29.93,13.23-36.12,9.66
	c20.62-11.97,41.54-24.11,64.32-37.34c-5.44-2.1-8.13-3.49-10.98-4.18c-14.71-3.56-29.56-6.57-44.14-10.56
	c-5.79-1.58-10.3-0.72-15.61,1.57c-37.84,16.29-76.42,29.63-118.3,30.85c-35.76,1.04-71.45,3.1-106.56,11.14
	c-20.37,4.67-41.02,8.13-61.54,12.16c-2,0.39-3.96,0.91-4.55,1.05c10.97,4.32,22.57,9,34.27,13.4c2.47,0.93,5.31,0.9,7.99,1.2
	c16.41,1.84,32.89,3.25,49.21,5.69c5.72,0.86,11.08,4.21,16.6,6.43c-0.17,1.37-0.35,2.75-0.52,4.12
	c-15.56,1.55-31.11,3.1-46.86,4.68c0.96,2.22,2.35,4.64,3.03,7.24c0.58,2.23,0.34,4.66,0.46,7.01c-2.29,0.05-4.79,0.71-6.83,0.02
	c-5.45-1.84-11.17-3.55-15.96-6.58c-19.6-12.41-41.23-17.98-63.96-20.34c-23.01-2.39-46.02-4.71-69.02-7.21
	c-22.59-2.45-42.93-11.55-62.71-21.98c-3.5-1.85-5.53-6.82-9.08-8.19c-14.61-5.65-30-9.47-44.26-15.83
	c-22.92-10.21-45.22-21.78-58.88-44.61c-3.62-6.04-8.31-11.44-13.57-18.58c-7.04,4.72-16.19,7.63-19.36,13.67
	c-6,11.44-8.8,24.62-12.33,37.24c-0.58,2.09,1.18,5.99,3.09,7.43C292.38,747.04,301.14,752.72,309.75,758.63z M323.93,655.84
	c3.97,6.74,6.19,11.92,9.63,16.08c10.1,12.23,19.1,26.17,31.5,35.48c13.34,10.02,29.63,16.64,45.38,22.84
	c29.96,11.8,60.63,21.19,92.98,24.74c43.37,4.77,86.21,3.65,128.87-6.26c38.37-8.92,77.12-16.31,116.74-15.63
	c52.13,0.9,99.96-14.16,145.48-37.9c26.61-13.88,52.82-28.52,78.94-43.3c8.35-4.72,16.01-10.75,23.63-16.64
	c7.7-5.96,7.88-8.86,0.66-15.73c-3.92-3.73-8.61-6.96-13.48-9.31c-15.6-7.52-31.39-14.66-47.28-21.57
	c-1.97-0.86-5.12,0.06-7.38,0.99c-15.87,6.5-32.03,11.13-48.93,4.78c-19-7.14-36.07-4.56-53.57,5.7
	c-24.67,14.46-49.76,28.13-77.49,36.69c-17.73,5.48-35.01,13.34-48.61,26.9c-9.12,9.1-17.25,19.04-29.8,24.25
	c-58.23,24.15-116.14,23.55-174.01-1.12c-2.11-0.9-4.86-1.27-7.08-0.81c-22.05,4.58-41.34,0.31-59.74-13.68
	c-14.02-10.66-29.32-21.38-48.54-20.51C363.21,652.67,344.62,654.37,323.93,655.84z M839.55,976.84c0.42,0.58,0.83,1.17,1.25,1.75
	c-2.92,1.9-5.67,5-8.81,5.46c-7,1.03-14.25,1.47-21.3,0.89c-36.23-2.97-72.24-6.86-108.02-14.32
	c-48.59-10.14-96.66-21.66-143.61-37.78c-20.51-7.04-40.72-15.51-61.75-20.41c-41.97-9.79-83.08-21.48-121.53-41.36
	c-6.36-3.29-12.73-6.56-19.28-9.42c-1.81-0.79-5.64-0.91-6.25,0.08c-6.18,9.94-11.88,20.17-18.2,31.15
	c29.94,21.55,58.75,43.26,88.6,63.42c20.93,14.14,42.77,27.14,67.42,34.36c26.12,7.65,51.96,16.43,78.34,23.01
	c36.31,9.04,72.66,19.27,109.64,23.93c57.33,7.23,115.16,10.86,172.87,14.62c22.39,1.46,45.04-0.78,67.56-1.61
	c3.4-0.13,7.86-0.71,9.92-2.89c13.78-14.64,27.03-29.78,34.89-48.69c1.01-2.44,1.58-5.07,2.61-8.43c-3.29-0.41-5.69-0.74-8.09-0.99
	c-19.73-2.05-39.48-3.93-59.18-6.23c-4.46-0.52-8.76-2.47-13.13-3.77c0.18-1.05,0.37-2.09,0.55-3.14
	c20.21-6.92,40.91-1.49,61.64-0.99c-15.85-9.84-32.08-18.52-47.83-27.99c-6.1-3.66-11.45-4.63-18.49-3.06
	c-45.9,10.22-92.1,16.67-139.27,9.85c-19.33-2.79-38.76-4.86-58.15-7.26c-0.17,1.1-0.35,2.2-0.52,3.29
	C734.13,959.14,786.84,967.99,839.55,976.84z M330.13,828.42c13.08,5.59,25.92,10.24,37.99,16.38
	c37.42,19.03,76.11,34.92,116.86,44.84c41.38,10.07,83.75,14.93,125.13,26.24c39.62,10.83,81.31,13.97,121.99,21.12
	c37.68,6.62,75.01,5.37,112.46-1.87c31.86-6.15,63.9-11.33,95.88-16.87c4.6-0.8,9.26-1.19,14.67-1.86
	c-1.31-1.52-1.59-2.07-2.03-2.32c-29.1-16.7-58.21-33.4-87.37-50c-1.3-0.74-3.31-1.16-4.67-0.71c-6.9,2.26-13.7,4.85-21.63,7.72
	c29.47,7.56,38.83,11.76,43.22,20.49c-24.42-4.25-47.65-8.43-70.95-12.24c-5.41-0.89-11.04-0.51-16.56-0.72
	c0,0.72,0.01,1.43,0.01,2.15c22.05,4.7,44.35,8.8,61.97,25.09c-8.86,0.76-17.54,0.78-26.12-0.1c-51.8-5.3-103.57-10.84-155.36-16.21
	c-20.27-2.1-40.61-3.58-60.83-6.01c-55.36-6.65-109.41-20.03-163.43-33.25c-25.33-6.2-51.06-12.56-74.74-23.07
	C359.39,819.57,345.7,824.56,330.13,828.42z M512.62,682.07c3.28,0.67,5.84,1.43,8.45,1.7c17.53,1.81,35.04,3.72,52.6,5.23
	c52.54,4.52,97.73-10.07,132.12-52.51c-14.13-4.04-28.64-9.94-43.68-12.04c-19.44-2.71-38.47,2.89-56.04,11.05
	c-20.95,9.72-41.08,21.21-61.69,31.67C534.25,672.29,523.82,676.83,512.62,682.07z M1005.27,335.43c-0.17-1.19-0.35-2.39-0.52-3.58
	c-9.28-9.76-22.3-9.32-34.59-12.99c0.22,9.79,0.42,18.47,0.65,28.96C982.69,343.55,993.98,339.49,1005.27,335.43z"/>
<path class="st7" d="M454.2,413.34c-11.3-1.6-15.27-8.77-9.94-18.76c8.01-15,20.46-23.44,37.75-23.64
	c7.58-0.09,14.96,11.13,12.42,18.28C489.96,401.81,467.57,415.23,454.2,413.34z M487.32,384.43c-11.69-6.3-30.16,0.26-34.95,12.01
	c-2.34,5.75-0.16,8.12,5.71,8.25C467.45,404.9,483.34,394.19,487.32,384.43z"/>
<path class="st7" d="M350.63,353.39c2.53-15.73,22.33-29.29,37.42-25.63c7.39,1.79,10.3,7.45,6.93,14.4
	c-6.16,12.7-16.65,20.34-30.13,23.49C355.18,367.91,349.2,362.31,350.63,353.39z M387.17,338.13c-11.94-1.43-24.95,7.97-25.78,18.52
	C372.58,354.21,381.12,348.76,387.17,338.13z"/>
<path class="st7" d="M367.39,432.5c-12.96-1.54-16.97-9.03-11.85-18.92c4.93-9.52,21.35-18,32.04-16.56
	c8.98,1.21,14.76,12.94,9.21,20.17C389.09,427.24,378.6,432.73,367.39,432.5z M389.99,410.14c-14.21-2.66-21.43,0.69-26.11,11.29
	C374.9,423.76,381.74,417.51,389.99,410.14z"/>
<path class="st7" d="M586.27,405.26c-9.97-1.37-13.45-8.03-7.95-16.25c8.33-12.45,20.55-17.84,35.24-16.9
	c9.71,0.62,12.69,7.01,7.88,15.23C613.8,400.42,600.47,407.21,586.27,405.26z M585.78,395.99c17.66,2.1,27.18-2.06,30.7-13.02
	C602.96,379.94,591.51,384.61,585.78,395.99z"/>
<path class="st7" d="M627.52,580.34c-8.86,3.38-17.55,7.36-26.63,10c-17.63,5.12-33.68,12.72-48.82,23.41
	c-16.49,11.64-35.67,11.76-54.78,6.89c-13.57-3.45-27.05-7.27-40.49-11.21c-1.96-0.58-3.44-2.79-5.14-4.25
	c1.96-1.68,3.97-4.85,5.87-4.8c10.08,0.3,20.28,0.65,30.16,2.46c11.59,2.12,22.65,6.02,34.93,3.97
	c12.13-2.02,23.07-5.23,33.59-12.28c19.75-13.23,42.72-16.75,66.08-17.71c1.5-0.06,3.04,0.69,4.56,1.06
	C627.09,578.68,627.3,579.51,627.52,580.34z"/>
<path class="st7" d="M405.66,599.1c-2.79,1.48-5.45,3.32-8.39,4.37c-8.01,2.86-16.09,5.59-24.25,7.99
	c-18.67,5.49-33.37-3.82-33.89-23.13c-0.34-12.63-7.24-17.74-16.86-22.42c-3.77-1.84-6.67-5.48-9.96-8.3
	c4.46-0.85,9.18-3.06,13.35-2.3c15.98,2.9,25.96,13.62,28.62,29.23c1.94,11.38,5.53,13.93,16.89,11.86
	c5.67-1.03,11.31-2.93,16.99-3.02c5.81-0.09,11.65,1.56,17.47,2.44C405.64,596.91,405.65,598,405.66,599.1z"/>
<path class="st7" d="M692.13,570.41c4.44-0.41,9.16-2.02,13.27-1.04c21.69,5.18,42.97,4.79,64.13-2.54
	c3.2-1.11,6.86-0.87,11.04-1.34C764.35,589.8,728.01,592.29,692.13,570.41z"/>
<path class="st7" d="M866.8,534.39c-0.97-0.34-2.1-0.46-2.9-1.04c-17.52-12.86-23.45-36.82-13.94-56.15
	c4.07-8.27,9.2-11.19,16.13-9.38c-6.72,15.83-10.09,31.51-1.26,47.99c2.76,5.15,3.24,11.52,4.76,17.33
	C868.67,533.56,867.74,533.98,866.8,534.39z"/>
<path class="st7" d="M789.25,815.59c-0.17,1.09-0.02,2.41-0.6,3.21c-2.65,3.68-5.51,7.22-8.3,10.8c-2.66-3.4-5.98-6.47-7.84-10.26
	c-3.34-6.79-6.03-13.92-8.5-21.08c-0.89-2.57-1.53-6.8-0.17-8.17c1.86-1.88,6-2.91,8.72-2.3
	C783.55,790.23,790.79,802.81,789.25,815.59z"/>
<path class="st7" d="M855.81,804.97c-0.8,1.02-2.12,4.33-4.1,4.79c-2.35,0.55-6.34-0.52-7.75-2.33
	c-4.84-6.22-9.12-12.92-13.01-19.78c-1.02-1.81-0.77-5.71,0.54-7.11c1.47-1.57,4.98-2.3,7.29-1.83
	C846.97,780.34,857.06,795.3,855.81,804.97z"/>
<path class="st7" d="M918.11,643.98c-5.42,1.35-10.84,3.81-16.28,3.86c-37.76,0.38-69.22,15.99-97.38,39.6
	c-15.71,13.17-33.42,21.08-53.94,22.28c-4.85,0.28-9.75-0.2-15.53-2.32c1.75-1.47,3.28-3.75,5.28-4.29
	c23.7-6.4,42.79-20.4,62.09-34.93c23.56-17.75,48.54-34,79.98-33.51c9.27,0.14,18.56,1.13,27.76,2.38c2.87,0.39,5.44,2.92,8.15,4.47
	C918.2,642.34,918.15,643.16,918.11,643.98z"/>
<path class="st7" d="M464.76,915.22c7.82,0.75,15.26,8.9,14.74,16.14c-0.7,9.56-11.11,18.91-20.25,18.19
	c-7.89-0.63-15.8-9.33-15.2-16.72C444.78,923.74,455.81,914.37,464.76,915.22z M468.41,923.16c-4.75,2.84-9.67,5.53-14.13,8.83
	c-0.46,0.34,1.45,6,2.82,6.26c3.07,0.59,7.05,0.23,9.66-1.37C471.05,934.26,472.97,930,468.41,923.16z"/>
<path class="st7" d="M513.55,963.18c1.03-9.55,10.53-16.35,21.66-15.52c5.79,0.43,11.61,6.77,11.2,12.18
	c-0.74,9.61-11.66,20.28-20.13,19.65C518.78,978.93,512.7,971.13,513.55,963.18z M524.09,965.38c1.15,1.31,2.3,2.63,3.45,3.94
	c3.23-3.16,6.46-6.32,9.68-9.47c-0.87-0.95-1.73-1.9-2.6-2.85C531.11,959.79,527.6,962.59,524.09,965.38z"/>
</svg>
